# xmcd
#
# Track frame offsets: 
#        150
#        12110
#        23135
#        35187
#        47712
#        58722
#        71435
#        81330
#        91630
#        101772
#        114322
#        124060
#        134435
#        145672
#        156995
#        168085
#        180240
#        192150
#        202537
#        214357
#        223907
#        235505
#        246210
#        255537
#        266810
#        277920
#        288577
#        299385
#        309975
#
# Disc length: 4277 seconds
#
# Revision: 3
# Processed by: cddbd v1.5.2PL0 Copyright (c) Steve Scherf et al.
# Submitted via: ExactAudioCopy v1.1
#
DISCID=a010b31d
DTITLE=Kitty Wells - The Queen Of Country Music - Disc 4
DYEAR=1993
DGENRE=Country
TTITLE0=What About You (mono)
TTITLE1=May You Never Be Alone (mono)
TTITLE2=If Teardrops Were Pennies (mono)
TTITLE3=Touch And Go Heart (mono)
TTITLE4=My Used To Be Darling (mono)
TTITLE5=(I'll Always Be Your) Fraulein (mono)
TTITLE6=Love Me To Pieces (mono)
TTITLE7=What I Believe Dear (Is All Up To You) (mono)
TTITLE8=I Can't Stop Loving You (mono)
TTITLE9=Slowly Dying (mono)
TTITLE10=I Can't Help Wondering (stereo)
TTITLE11=He's Lost His Love For Me (stereo)
TTITLE12=Jealousy (stereo)
TTITLE13=Mommy For A Day (stereo)
TTITLE14=The Hands You're Holding Now (stereo)
TTITLE15=Let Me Help You Forget (stereo)
TTITLE16=All The Time (stereo)
TTITLE17=Dust On The Bible (Lp version) (stereo)
TTITLE18=(I've Got My) One Way Ticket To The Sky (stereo)
TTITLE19=I Heard My Saviour Call (stereo)
TTITLE20=I Dreamed I Searched Heaven For You (stereo)
TTITLE21=The Great Speckled Bird (stereo)
TTITLE22=Matthew Twenty-Four (stereo)
TTITLE23=I Need The Prayers (stereo)
TTITLE24=My Loved Ones Are Waiting For Me (stereo)
TTITLE25=Lord I'm Coming Home (stereo)
TTITLE26=He Will Set Your Fields On Fire (stereo)
TTITLE27=Lonesome Valley (stereo)
TTITLE28=We Buried Her Beneath The Willows (stereo)
EXTD=YEAR: 1993
EXTT0=
EXTT1=
EXTT2=
EXTT3=
EXTT4=
EXTT5=
EXTT6=
EXTT7=
EXTT8=
EXTT9=
EXTT10=
EXTT11=
EXTT12=
EXTT13=
EXTT14=
EXTT15=
EXTT16=
EXTT17=
EXTT18=
EXTT19=
EXTT20=
EXTT21=
EXTT22=
EXTT23=
EXTT24=
EXTT25=
EXTT26=
EXTT27=
EXTT28=
PLAYORDER=
